<svg width="16" height="9" viewBox="0 0 16 9" fill="none" xmlns="http://www.w3.org/2000/svg">
<path d="M3.90002 0.575989C4.78802 0.575989 5.56402 0.751988 6.22802 1.10399C6.89202 1.45599 7.40402 1.95199 7.76402 2.59199C8.13202 3.22399 8.31602 3.95599 8.31602 4.78799C8.31602 5.61199 8.13202 6.34399 7.76402 6.98399C7.40402 7.62399 6.88802 8.11999 6.21602 8.47199C5.55202 8.82399 4.78002 8.99999 3.90002 8.99999H0.744019V0.575989H3.90002ZM3.76802 7.22399C4.54402 7.22399 5.14802 7.01199 5.58002 6.58799C6.01202 6.16399 6.22802 5.56399 6.22802 4.78799C6.22802 4.01199 6.01202 3.40799 5.58002 2.97599C5.14802 2.54399 4.54402 2.32799 3.76802 2.32799H2.79602V7.22399H3.76802Z" fill="white"/>
<path d="M14.0828 4.67999C14.5708 4.78399 14.9628 5.02799 15.2588 5.41199C15.5548 5.78799 15.7028 6.21999 15.7028 6.70799C15.7028 7.41199 15.4548 7.97199 14.9588 8.38799C14.4708 8.79599 13.7868 8.99999 12.9068 8.99999H8.98277V0.575989H12.7748C13.6308 0.575989 14.2988 0.771989 14.7788 1.16399C15.2668 1.55599 15.5108 2.08799 15.5108 2.75999C15.5108 3.25599 15.3788 3.66799 15.1148 3.99599C14.8588 4.32399 14.5148 4.55199 14.0828 4.67999ZM11.0348 3.98399H12.3788C12.7148 3.98399 12.9708 3.91199 13.1468 3.76799C13.3308 3.61599 13.4228 3.39599 13.4228 3.10799C13.4228 2.81999 13.3308 2.59999 13.1468 2.44799C12.9708 2.29599 12.7148 2.21999 12.3788 2.21999H11.0348V3.98399ZM12.5468 7.34399C12.8908 7.34399 13.1548 7.26799 13.3388 7.11599C13.5308 6.95599 13.6268 6.72799 13.6268 6.43199C13.6268 6.13599 13.5268 5.90399 13.3268 5.73599C13.1348 5.56799 12.8668 5.48399 12.5228 5.48399H11.0348V7.34399H12.5468Z" fill="white"/>
</svg>
